HIERARCHY
ROOT Hips
{
  OFFSET 267.745 86.9975 -272.335
  CHANNELS 6 Xposition Yposition Zposition Zrotation Xrotation Yrotation
  JOINT LeftUpLeg
  {
    OFFSET 8.64259 1.95398 -2.38835
    CHANNELS 3 Zrotation Xrotation Yrotation
    JOINT LeftLeg
    {
      OFFSET 43.7702 0 0
      CHANNELS 3 Zrotation Xrotation Yrotation
      JOINT LeftFoot
      {
        OFFSET 40.6238 0 0
        CHANNELS 3 Zrotation Xrotation Yrotation
        JOINT LeftToeBase
        {
          OFFSET 12.7242 0 0
          CHANNELS 3 Zrotation Xrotation Yrotation
          End Site
          {
            OFFSET 0 0 0
          }
        }
      }
    }
  }
  JOINT RightUpLeg
  {
    OFFSET -8.2249 1.95398 -2.59336
    CHANNELS 3 Zrotation Xrotation Yrotation
    JOINT RightLeg
    {
      OFFSET 43.5653 0 0
      CHANNELS 3 Zrotation Xrotation Yrotation
      JOINT RightFoot
      {
        OFFSET 40.6238 0 0
        CHANNELS 3 Zrotation Xrotation Yrotation
        JOINT RightToeBase
        {
          OFFSET 12.7242 0 0
          CHANNELS 3 Zrotation Xrotation Yrotation
          End Site
          {
            OFFSET 0 0 0
          }
        }
      }
    }
  }
  JOINT Spine
  {
    OFFSET 0.165834 0.87714 6.61349
    CHANNELS 3 Zrotation Xrotation Yrotation
    JOINT Spine1
    {
      OFFSET 7.38963 1.71661e-005 0
      CHANNELS 3 Zrotation Xrotation Yrotation
      JOINT Spine2
      {
        OFFSET 11.9445 1.14441e-005 0
        CHANNELS 3 Zrotation Xrotation Yrotation
        JOINT Spine3
        {
          OFFSET 14.7254 4.19617e-005 0
          CHANNELS 3 Zrotation Xrotation Yrotation
          JOINT Spine4
          {
            OFFSET 10.9679 0 0
            CHANNELS 3 Zrotation Xrotation Yrotation
            JOINT RightShoulder
            {
              OFFSET 2.46616 -1.6653 3.69651
              CHANNELS 3 Zrotation Xrotation Yrotation
              JOINT RightArm
              {
                OFFSET 13.0012 0 0
                CHANNELS 3 Zrotation Xrotation Yrotation
                JOINT RightForeArm
                {
                  OFFSET 28.7848 1.52588e-005 0
                  CHANNELS 3 Zrotation Xrotation Yrotation
                  JOINT RightHand
                  {
                    OFFSET 26.5688 1.52588e-005 0
                    CHANNELS 3 Zrotation Xrotation Yrotation
                    End Site
                    {
                      OFFSET 0 0 0
                    }
                  }
                }
              }
            }
            JOINT LeftShoulder
            {
              OFFSET 2.38034 -1.29275 -3.7523
              CHANNELS 3 Zrotation Xrotation Yrotation
              JOINT LeftArm
              {
                OFFSET 16.3182 6.10352e-005 0
                CHANNELS 3 Zrotation Xrotation Yrotation
                JOINT LeftForeArm
                {
                  OFFSET 27.0901 0 0
                  CHANNELS 3 Zrotation Xrotation Yrotation
                  JOINT LeftHand
                  {
                    OFFSET 24.5451 1.52588e-005 0
                    CHANNELS 3 Zrotation Xrotation Yrotation
                    End Site
                    {
                      OFFSET 0 0 0
                    }
                  }
                }
              }
            }
            JOINT Neck
            {
              OFFSET 5.0226 -0.0266342 0
              CHANNELS 3 Zrotation Xrotation Yrotation
              JOINT Head
              {
                OFFSET 6.69364 2.86102e-005 0
                CHANNELS 3 Zrotation Xrotation Yrotation
                End Site
                {
                  OFFSET 0 0 0
                }
              }
            }
          }
        }
      }
    }
  }
}
MOTION
Frames:	18
Frame Time:	0.0416667
-324.479 94.6362 22.0663 92.5551 3.34457 91.1993 -175.934 1.08625 90.4731 -8.90468 18.4197 3.06371 57.9869 2.25147 9.68518 38.0063 -1.06074 0.771924 175.675 5.77011 88.731 -19.2818 3.66043 -0.67868 62.9783 5.99965 15.6867 25.789 0.42091 2.76459 -0.231205 7.31774 -90.2653 12.2371 -0.585203 -0.464005 0.566175 -0.605042 -0.437806 -21.9689 -0.418692 -0.61843 -1.95629 -0.418695 -0.618427 101.297 -51.737 -83.4956 32.3476 -6.92547 -4.12628 -3.28777 -25.854 -17.207 -18.8343 -1.82092 6.06311 -78.926 -48.082 95.1836 -38.367 -0.453587 -14.1378 15.7853 47.2357 -21.3176 5.59671 0.060743 -2.19831 -2.6221 -1.74524 -12.8884 -8.03455 -0.94067 20.2718 
-324.406 94.5892 22.1414 92.8505 3.6343 90.8944 -175.545 0.793576 90.3764 -8.72254 16.36 2.61139 59.2689 3.13415 8.66146 36.9402 -0.828299 -1.89468 175.153 5.82264 88.2981 -20.2179 3.76035 -0.312147 64.0483 5.60793 15.3877 23.9169 0.885898 2.43468 -0.208986 7.31667 -90.2423 12.2394 -0.530138 -0.424401 0.568484 -0.54832 -0.400662 -21.9666 -0.378091 -0.564108 -1.95393 -0.378097 -0.564115 100.98 -50.7779 -84.0004 33.1861 -7.12307 -3.4542 -2.42451 -23.1905 -16.3058 -17.0529 -1.53041 5.31116 -78.2047 -48.0238 96.306 -38.7162 -0.683972 -13.9403 11.7643 43.4667 -17.645 -0.998977 -0.154765 -7.9659 6.25831 -0.401712 -7.26445 -21.9581 -0.556892 9.56914 
-324.081 94.6788 22.4372 92.4378 3.49903 91.2351 -175.939 0.98204 90.7762 -9.08207 20.6148 3.30711 57.2638 1.67806 10.0811 39.4088 -1.23831 2.5156 175.234 5.72436 88.764 -19.5942 4.25851 -0.214348 63.563 5.72274 16.0399 23.9996 0.924152 2.01577 -0.138713 7.30406 -90.2715 12.2648 -0.40443 -0.497111 0.593798 -0.425924 -0.478837 -21.9408 -0.236337 -0.595672 -1.92815 -0.236345 -0.595678 101.087 -51.1012 -83.8281 32.5109 -7.4093 -3.78629 -2.76481 -23.433 -16.6367 -15.8235 -1.49728 5.87363 -79.3765 -49.587 94.5296 -37.3383 -1.16685 -12.6115 10.8216 41.0546 -17.2829 -0.0973281 -0.118179 -5.66477 4.5931 -0.577594 -7.04386 -19.7353 -0.625828 9.50437 
-323.722 94.5562 22.7335 92.2394 4.08253 91.1603 -176.113 0.99683 90.7937 -9.01463 18.9721 3.55158 58.2576 2.13472 8.65439 38.4982 -1.12279 1.4318 174.811 5.61867 88.8539 -19.7953 5.02782 0.289019 65.0123 4.41 15.0002 23.6055 0.827095 3.37239 -0.188263 7.3824 -90.2625 12.1079 -0.498244 -0.46887 0.43701 -0.518395 -0.446492 -22.0979 -0.334315 -0.596937 -2.08523 -0.334309 -0.596939 101.122 -51.1087 -83.7742 32.4137 -7.57467 -4.03819 -2.88725 -23.0554 -17.0178 -15.8791 -1.48643 5.76765 -80.5102 -50.6243 92.8455 -35.8242 -1.75973 -11.9127 10.7876 39.2559 -17.7036 1.144 -0.0999222 -4.74348 6.35078 -0.546329 -6.42282 -21.2452 -0.604949 8.70688 
-323.366 94.5455 23.1938 91.6018 4.61039 90.9791 -176.217 1.51673 90.7785 -9.01633 19.0185 3.55801 58.3706 2.3023 9.01188 38.9703 -1.16748 0.990794 175 6.54731 88.8611 -20.92 6.8632 0.0226513 64.8767 5.81987 18.0741 23.2207 1.00098 2.74631 -0.258918 7.39932 -90.2463 12.074 -0.630999 -0.422041 0.40313 -0.64896 -0.393863 -22.1322 -0.474975 -0.592167 -2.11961 -0.475018 -0.592179 100.864 -50.5294 -84.1864 33.1079 -7.70786 -4.14811 -2.90955 -23.5314 -16.7312 -15.1788 -1.41034 5.70374 -80.256 -50.5986 93.2283 -35.4677 -0.975794 -12.4067 10.5272 40.0257 -17.5013 1.36387 -0.127224 -5.49487 5.62472 -0.16456 -5.93068 -19.3843 -0.215919 8.69533 
-322.753 94.4793 23.8678 91.5697 5.0141 90.7017 -176.264 1.23804 90.9625 -9.12489 19.7842 3.82238 58.3905 2.10842 8.27425 40.1336 -1.32312 3.05387 175.109 6.60699 89.1505 -21.8657 6.5867 -0.0650231 65.4967 5.16295 17.3143 25.0805 0.635835 2.29763 -0.317573 7.47857 -90.2406 11.9155 -0.744696 -0.39976 0.244677 -0.761573 -0.366605 -22.2912 -0.590132 -0.605095 -2.27851 -0.590134 -0.605093 100.672 -50.782 -84.4766 32.9335 -7.69592 -4.06497 -2.06074 -23.2415 -15.841 -17.2521 -1.7124 6.40679 -80.4633 -50.8219 92.926 -34.1202 1.11741 -13.4301 9.73803 42.3036 -17.203 0.592751 -0.098409 -4.65136 5.4021 0.25883 -5.62241 -19.2192 0.0233046 9.60551 
-321.84 94.3375 24.8009 91.2223 3.91372 90.9044 -175.566 0.974288 91.7768 -9.19527 19.0756 3.67161 58.9057 2.67863 8.22777 40.9106 -1.39069 3.50724 175.333 7.67862 89.7472 -24.0182 5.14729 -0.0122093 65.0278 5.37913 17.4705 27.2613 0.212696 1.62055 -0.252355 7.54018 -90.293 11.7919 -0.639387 -0.516226 0.120987 -0.66149 -0.487591 -22.4141 -0.454707 -0.684526 -2.40143 -0.454671 -0.684517 100.843 -50.9881 -84.2077 32.6064 -7.45411 -4.77194 -1.44603 -23.8484 -14.2164 -17.0124 -1.57472 5.62072 -80.0195 -50.3596 93.5749 -33.9251 2.21369 -16.3452 9.49698 47.1271 -15.8793 -1.23917 -0.0847491 -3.73235 5.36108 0.831209 -5.47088 -19.6298 0.513099 9.66129 
-320.308 94.1057 25.8269 91.4863 2.83053 90.6456 -176.245 -0.415161 91.6831 -8.85314 15.9536 4.4252 59.0114 3.6503 7.31772 42.8016 -1.55754 3.84184 175.306 7.24395 90.1003 -25.5668 4.15672 0.0591083 66.4397 4.74018 16.7669 27.5801 0.155733 1.44338 -0.253091 7.58762 -90.2855 11.697 -0.637366 -0.502365 0.0261515 -0.658863 -0.47383 -22.509 -0.456927 -0.670693 -2.49631 -0.456917 -0.670699 100.969 -51.5261 -84.0014 32.3967 -7.07419 -3.7781 -1.84803 -23.6573 -14.8912 -16.21 -1.5293 5.84803 -80.1387 -49.839 93.3735 -34.3652 2.09417 -16.3293 10.3398 45.1042 -17.1581 0.176299 -0.0305013 -1.77964 4.7007 0.973318 -7.00345 -19.4921 0.571081 12.1777 
-318.576 93.2152 26.9209 91.3667 1.45322 90.4266 -177.257 2.96766 92.2064 -17.9671 14.7603 3.34656 60.179 6.32107 10.2997 49.2968 -1.7582 8.36205 174.186 6.69711 90.1599 -27.1129 1.57407 1.40908 71.9646 0.207583 11.7367 25.9682 0.212186 4.23099 -0.173134 7.54375 -90.3075 11.7849 -0.488724 -0.561227 0.113917 -0.512943 -0.539182 -22.4206 -0.297509 -0.682171 -2.40795 -0.297488 -0.68217 101.027 -51.3283 -83.9157 32.7496 -6.47614 -2.87761 -1.83581 -24.2179 -14.4957 -16.5148 -1.51048 5.50271 -80.1117 -49.5643 93.4027 -34.1184 2.33011 -14.0635 12.3898 38.6417 -22.2003 -0.255365 -0.0648306 -2.97877 5.36178 1.82478 -6.71275 -21.2037 1.2827 11.7151 
-316.645 92.3102 27.8256 92.8042 0.877111 89.8629 -178.86 9.99028 91.6261 -36.2949 13.1326 3.9403 58.8114 4.87175 7.91622 55.138 -1.17446 15.6164 174.503 6.0613 89.8741 -31.7791 0.962929 0.591324 75.2971 1.82992 15.077 24.9136 0.866762 0.734315 -0.0839528 7.76764 -90.3477 11.3372 -0.329109 -0.659841 -0.33388 -0.357814 -0.644725 -22.8678 -0.115572 -0.728237 -2.85512 -0.115572 -0.728245 100.454 -50.9724 -84.8064 32.1455 -7.45357 -3.10833 -0.933263 -23.9998 -13.5612 -16.9639 -1.61903 5.96261 -78.4538 -48.8838 95.9266 -35.6142 2.68776 -14.1183 16.609 38.723 -27.2911 4.19608 -0.00838546 -2.89815 6.0482 2.07674 -5.54025 -20.7021 1.47421 11.1685 
-314.143 91.5555 28.4535 93.5524 0.529964 88.9201 -178.976 18.2219 90.303 -50.8185 9.53559 3.2714 58.9767 5.12171 8.33029 54.8368 -1.14236 15.8353 173.803 4.5195 88.9133 -33.5757 -0.812374 0.894905 77.7768 0.549313 13.9973 27.5593 0.455361 -1.54037 0.169369 7.88648 -90.3894 11.1007 0.156408 -0.790119 -0.570463 0.12149 -0.796246 -23.104 0.386615 -0.706598 -3.09133 0.386644 -0.706588 100.743 -50.1657 -84.3834 31.917 -7.67394 -3.28028 -1.2409 -24.6676 -13.9137 -16.5847 -1.70605 6.83613 -78.2928 -50.5158 96.1938 -35.0024 2.78276 -13.2294 18.5438 38.9343 -30.211 1.61649 -0.030648 -2.58437 5.57313 1.73468 -4.34606 -19.7484 1.11432 10.2338 
-311.188 91.7085 28.8474 93.014 -0.188673 87.3413 -177.808 21.9751 87.9056 -44.1358 11.1249 1.54845 59.0283 4.81556 9.66556 55.1231 -1.08265 16.4263 173.175 2.59867 87.5007 -31.9706 -0.238056 0.692917 78.3955 -1.07613 12.8528 29.5128 -0.342097 2.02845 0.42372 7.83743 -90.2132 11.2012 0.744183 -0.497607 -0.469606 0.721571 -0.529883 -23.0062 0.859297 -0.250943 -2.9936 0.859334 -0.250937 101.297 -50.8484 -83.5092 31.429 -7.44223 -3.80552 -1.5563 -23.8797 -14.5385 -16.5858 -1.57494 5.91187 -79.3237 -49.1018 94.593 -37.3177 1.15593 -11.5067 16.2889 38.7811 -26.8418 -1.09919 -0.0819961 -4.21673 7.60006 0.587816 -6.66545 -21.5889 0.111564 11.9442 
-307.911 91.9515 28.9883 91.5837 -0.451416 86.7939 -177.603 20.9653 86.5983 -20.7617 3.71793 0.112136 56.5815 2.90792 5.44204 50.6539 -1.87564 7.48802 174.147 1.14572 87.5419 -30.0171 1.65356 -0.807145 76.2637 1.45756 16.3103 31.6663 -0.85443 2.19244 0.530675 7.7912 -90.1573 11.2933 0.98286 -0.41084 -0.37731 0.963835 -0.453719 -22.9154 1.0609 -0.0964312 -2.90273 1.06088 -0.0964341 101.41 -50.3708 -83.3413 30.9782 -9.14906 -5.46725 -1.68995 -20.8865 -16.4386 -16.6042 -1.22999 3.45896 -79.2241 -49.2905 94.7523 -37.8923 0.116446 -10.883 11.177 38.3919 -19.7865 -0.814402 -0.106913 -5.57477 10.7761 -0.00724351 -5.94924 -21.9827 -0.378799 11.1416 
-303.89 91.9162 28.8863 90.6653 -1.47957 87.1499 -179.57 21.9969 87.3964 -7.57959 10.0912 0.873083 49.7131 -4.38885 2.00056 43.3636 -1.5537 6.9403 172.759 -1.91704 86.8733 -26.4886 0.936871 0.23363 74.5249 0.191612 15.6904 36.1533 -1.90645 5.24623 0.668877 7.83736 -90.2235 11.2025 1.22742 -0.565381 -0.468036 1.2013 -0.618865 -23.0077 1.34053 -0.170305 -2.99505 1.34057 -0.170306 101.5 -49.748 -83.2094 29.6624 -10.9657 -7.16078 -3.55036 -20.2163 -20.5343 -15.0743 -1.22686 4.3318 -79.6692 -50.2498 94.1022 -38.283 -2.75065 -9.91929 11.9977 44.2129 -17.4781 -3.3267 -0.0958988 -3.36317 12.1426 0.164923 -4.851 -20.4216 -0.113138 10.1767 
-298.201 91.4724 28.6859 90.5722 -4.33865 88.1862 179.926 22.9001 88.3246 -10.3552 10.3468 1.95718 51.4268 -3.99484 0.994849 41.9322 -1.48826 7.44629 172.331 -4.15819 85.7142 -27 -1.56673 -0.105567 67.0552 5.56443 22.8181 46.358 -4.29154 3.15159 0.756059 7.95189 -90.1427 10.9731 1.43917 -0.420842 -0.697178 1.41925 -0.483793 -23.2387 1.49909 0.031244 -3.22607 1.4991 0.0312382 101.531 -50.0789 -83.1576 28.9246 -11.3143 -8.86266 -4.11512 -17.9948 -23.0386 -14.8047 -1.02017 2.93734 -79.5914 -49.8155 94.2065 -38.3895 -4.47147 -8.41048 10.6534 45.2068 -14.5992 -3.24583 -0.0909974 -4.0531 13.2803 0.700858 -6.79664 -21.8334 0.456244 12.5427 
-291.148 91.0738 28.2028 90.8516 -5.59857 88.5809 179.972 23.7882 87.5395 -20.7217 12.6957 2.17845 53.0063 -3.14807 8.60363 40.2532 -1.26888 0.78851 171.283 -6.05931 83.5251 -28.9354 -4.14373 -0.661514 57.1211 8.76813 26.8163 53.9782 -5.02792 8.40528 0.654098 7.96724 -89.883 10.94 1.35633 0.104062 -0.730167 1.35956 0.0442465 -23.2704 1.26232 0.506943 -3.25781 1.26234 0.506945 101.7 -50.4252 -82.8912 29.8715 -10.8686 -7.29496 -4.92791 -17.341 -24.9611 -15.4883 -0.972603 2.13981 -80.358 -49.5352 93.0248 -37.0584 -6.40218 -7.66126 9.57336 46.776 -11.9666 -4.56711 -0.115386 -3.17664 12.6437 1.46014 -7.44661 -22.2551 1.27611 12.5659 
-284.207 90.7985 27.7195 92.0816 -4.32784 88.8583 -179.095 22.2688 86.4852 -29.1906 14.4694 2.2601 59.1356 -0.139668 10.5504 37.469 -0.97599 0.0667859 169.65 -1.49605 81.7003 -41.3529 -8.43801 -0.331511 43.3359 12.5351 23.6177 44.0532 -3.46668 6.05615 0.452781 8.01652 -89.7067 10.8386 1.03718 0.486491 -0.831966 1.05755 0.440364 -23.3688 0.842999 0.775721 -3.35612 0.843003 0.775711 101.707 -50.8039 -82.8758 30.8096 -9.39397 -5.20109 -4.69136 -18.4995 -23.0247 -14.4468 -0.931649 2.35623 -80.9928 -48.6683 92.004 -35.9085 -6.02628 -9.91567 8.87814 46.8765 -11.0124 -5.01997 -0.115081 -3.30749 10.9421 1.40015 -8.22067 -23.2875 1.09786 13.0163 
-277.566 91.1054 27.5318 94.0216 -3.14234 89.5739 -177.782 16.9495 86.2763 -31.8365 16.8239 2.00601 63.8095 3.69361 13.9026 38.0964 -0.994211 -1.43775 170.116 8.86251 82.9149 -59.8394 -12.689 -0.685405 44.4187 12.0809 21.4016 41.0544 -3.07286 -1.257 0.248431 8.1595 -89.683 10.5538 0.640556 0.572048 -1.11712 0.665108 0.543304 -23.6519 0.439026 0.738113 -3.63924 0.439024 0.738111 101.408 -50.8123 -83.3381 31.7087 -7.43705 -3.92073 -3.65002 -18.932 -20.5477 -14.9599 -1.09598 3.39543 -80.6647 -48.815 92.5183 -33.3472 -2.88275 -16.5209 7.37006 47.3478 -10.4078 -3.21571 -0.0943519 -3.51439 8.32379 1.63904 -7.68971 -22.858 0.951949 13.8018 
